<mxfile host="Electron" modified="2024-05-28T02:54:49.348Z" agent="Mozilla/5.0 (Macintosh; Intel Mac OS X 10.15; rv:126.0) Gecko/20100101 Firefox/126.0" etag="ZINGUdxgEEK7r-rVJ1qc" version="21.7.4" type="device">
  <diagram name="Page-1" id="ArQx7ltel_A58083uzBZ">
    <mxGraphModel dx="3810" dy="1036" grid="1" gridSize="10" guides="1" tooltips="1" connect="1" arrows="1" fold="1" page="1" pageScale="1" pageWidth="2336" pageHeight="1654" math="0" shadow="0">
      <root>
        <mxCell id="0" />
        <mxCell id="1" parent="0" />
        <mxCell id="6lzBRq8hJMNXazaC6yWQ-1" value="AWS Cloud" style="points=[[0,0],[0.25,0],[0.5,0],[0.75,0],[1,0],[1,0.25],[1,0.5],[1,0.75],[1,1],[0.75,1],[0.5,1],[0.25,1],[0,1],[0,0.75],[0,0.5],[0,0.25]];outlineConnect=0;gradientColor=none;html=1;whiteSpace=wrap;fontSize=12;fontStyle=0;container=1;pointerEvents=0;collapsible=0;recursiveResize=0;shape=mxgraph.aws4.group;grIcon=mxgraph.aws4.group_aws_cloud_alt;strokeColor=#232F3E;fillColor=none;verticalAlign=top;align=left;spacingLeft=30;fontColor=#232F3E;dashed=0;" vertex="1" parent="1">
          <mxGeometry x="160" y="200" width="960" height="680" as="geometry" />
        </mxCell>
        <mxCell id="6lzBRq8hJMNXazaC6yWQ-2" value="Region" style="points=[[0,0],[0.25,0],[0.5,0],[0.75,0],[1,0],[1,0.25],[1,0.5],[1,0.75],[1,1],[0.75,1],[0.5,1],[0.25,1],[0,1],[0,0.75],[0,0.5],[0,0.25]];outlineConnect=0;gradientColor=none;html=1;whiteSpace=wrap;fontSize=12;fontStyle=0;container=1;pointerEvents=0;collapsible=0;recursiveResize=0;shape=mxgraph.aws4.group;grIcon=mxgraph.aws4.group_region;strokeColor=#147EBA;fillColor=none;verticalAlign=top;align=left;spacingLeft=30;fontColor=#147EBA;dashed=1;" vertex="1" parent="6lzBRq8hJMNXazaC6yWQ-1">
          <mxGeometry x="40" y="40" width="880" height="600" as="geometry" />
        </mxCell>
        <mxCell id="6lzBRq8hJMNXazaC6yWQ-4" value="Stac Server" style="shape=module;align=left;spacingLeft=20;align=center;verticalAlign=top;whiteSpace=wrap;html=1;" vertex="1" parent="6lzBRq8hJMNXazaC6yWQ-2">
          <mxGeometry x="469" y="440" width="100" height="50" as="geometry" />
        </mxCell>
        <mxCell id="6lzBRq8hJMNXazaC6yWQ-28" value="publish regions events" style="edgeStyle=orthogonalEdgeStyle;rounded=0;orthogonalLoop=1;jettySize=auto;html=1;" edge="1" parent="6lzBRq8hJMNXazaC6yWQ-2" source="6lzBRq8hJMNXazaC6yWQ-5" target="6lzBRq8hJMNXazaC6yWQ-17">
          <mxGeometry relative="1" as="geometry">
            <Array as="points">
              <mxPoint x="790" y="110" />
            </Array>
          </mxGeometry>
        </mxCell>
        <mxCell id="6lzBRq8hJMNXazaC6yWQ-5" value="Regions&lt;br&gt;Module" style="shape=module;align=left;spacingLeft=20;align=center;verticalAlign=top;whiteSpace=wrap;html=1;" vertex="1" parent="6lzBRq8hJMNXazaC6yWQ-2">
          <mxGeometry x="730" y="100" width="100" height="50" as="geometry" />
        </mxCell>
        <mxCell id="6lzBRq8hJMNXazaC6yWQ-6" value="Amazon Verified Permissions&lt;br&gt;Authorization" style="sketch=0;points=[[0,0,0],[0.25,0,0],[0.5,0,0],[0.75,0,0],[1,0,0],[0,1,0],[0.25,1,0],[0.5,1,0],[0.75,1,0],[1,1,0],[0,0.25,0],[0,0.5,0],[0,0.75,0],[1,0.25,0],[1,0.5,0],[1,0.75,0]];outlineConnect=0;fontColor=#232F3E;fillColor=#DD344C;strokeColor=#ffffff;dashed=0;verticalLabelPosition=bottom;verticalAlign=top;align=center;html=1;fontSize=12;fontStyle=0;aspect=fixed;shape=mxgraph.aws4.resourceIcon;resIcon=mxgraph.aws4.verified_permissions;" vertex="1" parent="6lzBRq8hJMNXazaC6yWQ-2">
          <mxGeometry x="80" y="40" width="78" height="78" as="geometry" />
        </mxCell>
        <mxCell id="6lzBRq8hJMNXazaC6yWQ-7" value="authorize user" style="edgeStyle=orthogonalEdgeStyle;rounded=0;orthogonalLoop=1;jettySize=auto;html=1;" edge="1" parent="6lzBRq8hJMNXazaC6yWQ-2" source="6lzBRq8hJMNXazaC6yWQ-10" target="6lzBRq8hJMNXazaC6yWQ-6">
          <mxGeometry relative="1" as="geometry" />
        </mxCell>
        <mxCell id="6lzBRq8hJMNXazaC6yWQ-10" value="Amazon API Gateway&lt;br&gt;Notifications API" style="sketch=0;points=[[0,0,0],[0.25,0,0],[0.5,0,0],[0.75,0,0],[1,0,0],[0,1,0],[0.25,1,0],[0.5,1,0],[0.75,1,0],[1,1,0],[0,0.25,0],[0,0.5,0],[0,0.75,0],[1,0.25,0],[1,0.5,0],[1,0.75,0]];outlineConnect=0;fontColor=#232F3E;fillColor=#E7157B;strokeColor=#ffffff;dashed=0;verticalLabelPosition=bottom;verticalAlign=top;align=center;html=1;fontSize=12;fontStyle=0;aspect=fixed;shape=mxgraph.aws4.resourceIcon;resIcon=mxgraph.aws4.api_gateway;" vertex="1" parent="6lzBRq8hJMNXazaC6yWQ-2">
          <mxGeometry x="80" y="238" width="78" height="78" as="geometry" />
        </mxCell>
        <mxCell id="6lzBRq8hJMNXazaC6yWQ-11" value="Amazon Cognito&lt;br&gt;Authentication" style="sketch=0;points=[[0,0,0],[0.25,0,0],[0.5,0,0],[0.75,0,0],[1,0,0],[0,1,0],[0.25,1,0],[0.5,1,0],[0.75,1,0],[1,1,0],[0,0.25,0],[0,0.5,0],[0,0.75,0],[1,0.25,0],[1,0.5,0],[1,0.75,0]];outlineConnect=0;fontColor=#232F3E;fillColor=#DD344C;strokeColor=#ffffff;dashed=0;verticalLabelPosition=bottom;verticalAlign=top;align=center;html=1;fontSize=12;fontStyle=0;aspect=fixed;shape=mxgraph.aws4.resourceIcon;resIcon=mxgraph.aws4.cognito;" vertex="1" parent="6lzBRq8hJMNXazaC6yWQ-2">
          <mxGeometry x="80" y="440" width="78" height="78" as="geometry" />
        </mxCell>
        <mxCell id="6lzBRq8hJMNXazaC6yWQ-8" value="authenticate user" style="edgeStyle=orthogonalEdgeStyle;rounded=0;orthogonalLoop=1;jettySize=auto;html=1;" edge="1" parent="6lzBRq8hJMNXazaC6yWQ-2" source="6lzBRq8hJMNXazaC6yWQ-10" target="6lzBRq8hJMNXazaC6yWQ-11">
          <mxGeometry relative="1" as="geometry" />
        </mxCell>
        <mxCell id="6lzBRq8hJMNXazaC6yWQ-29" style="edgeStyle=orthogonalEdgeStyle;rounded=0;orthogonalLoop=1;jettySize=auto;html=1;" edge="1" parent="6lzBRq8hJMNXazaC6yWQ-2" source="6lzBRq8hJMNXazaC6yWQ-14" target="6lzBRq8hJMNXazaC6yWQ-15">
          <mxGeometry relative="1" as="geometry" />
        </mxCell>
        <mxCell id="6lzBRq8hJMNXazaC6yWQ-31" value="publish result events" style="edgeStyle=orthogonalEdgeStyle;rounded=0;orthogonalLoop=1;jettySize=auto;html=1;entryX=0;entryY=0.5;entryDx=0;entryDy=0;entryPerimeter=0;" edge="1" parent="6lzBRq8hJMNXazaC6yWQ-2" source="6lzBRq8hJMNXazaC6yWQ-14" target="6lzBRq8hJMNXazaC6yWQ-17">
          <mxGeometry relative="1" as="geometry">
            <Array as="points">
              <mxPoint x="400" y="277" />
              <mxPoint x="400" y="79" />
            </Array>
          </mxGeometry>
        </mxCell>
        <mxCell id="6lzBRq8hJMNXazaC6yWQ-14" value="AWS Lambda&lt;br&gt;Results API" style="sketch=0;points=[[0,0,0],[0.25,0,0],[0.5,0,0],[0.75,0,0],[1,0,0],[0,1,0],[0.25,1,0],[0.5,1,0],[0.75,1,0],[1,1,0],[0,0.25,0],[0,0.5,0],[0,0.75,0],[1,0.25,0],[1,0.5,0],[1,0.75,0]];outlineConnect=0;fontColor=#232F3E;fillColor=#ED7100;strokeColor=#ffffff;dashed=0;verticalLabelPosition=bottom;verticalAlign=top;align=center;html=1;fontSize=12;fontStyle=0;aspect=fixed;shape=mxgraph.aws4.resourceIcon;resIcon=mxgraph.aws4.lambda;" vertex="1" parent="6lzBRq8hJMNXazaC6yWQ-2">
          <mxGeometry x="280" y="238" width="78" height="78" as="geometry" />
        </mxCell>
        <mxCell id="6lzBRq8hJMNXazaC6yWQ-9" style="edgeStyle=orthogonalEdgeStyle;rounded=0;orthogonalLoop=1;jettySize=auto;html=1;" edge="1" parent="6lzBRq8hJMNXazaC6yWQ-2" source="6lzBRq8hJMNXazaC6yWQ-10" target="6lzBRq8hJMNXazaC6yWQ-14">
          <mxGeometry relative="1" as="geometry" />
        </mxCell>
        <mxCell id="6lzBRq8hJMNXazaC6yWQ-15" value="Amazon DynamoDB&lt;br&gt;Results" style="sketch=0;points=[[0,0,0],[0.25,0,0],[0.5,0,0],[0.75,0,0],[1,0,0],[0,1,0],[0.25,1,0],[0.5,1,0],[0.75,1,0],[1,1,0],[0,0.25,0],[0,0.5,0],[0,0.75,0],[1,0.25,0],[1,0.5,0],[1,0.75,0]];outlineConnect=0;fontColor=#232F3E;fillColor=#C925D1;strokeColor=#ffffff;dashed=0;verticalLabelPosition=bottom;verticalAlign=top;align=center;html=1;fontSize=12;fontStyle=0;aspect=fixed;shape=mxgraph.aws4.resourceIcon;resIcon=mxgraph.aws4.dynamodb;" vertex="1" parent="6lzBRq8hJMNXazaC6yWQ-2">
          <mxGeometry x="280" y="40" width="78" height="78" as="geometry" />
        </mxCell>
        <mxCell id="6lzBRq8hJMNXazaC6yWQ-26" style="edgeStyle=orthogonalEdgeStyle;rounded=0;orthogonalLoop=1;jettySize=auto;html=1;" edge="1" parent="6lzBRq8hJMNXazaC6yWQ-2" source="6lzBRq8hJMNXazaC6yWQ-17" target="6lzBRq8hJMNXazaC6yWQ-19">
          <mxGeometry relative="1" as="geometry" />
        </mxCell>
        <mxCell id="6lzBRq8hJMNXazaC6yWQ-17" value="Amazon EventBridge&lt;br&gt;Agie Events" style="sketch=0;points=[[0,0,0],[0.25,0,0],[0.5,0,0],[0.75,0,0],[1,0,0],[0,1,0],[0.25,1,0],[0.5,1,0],[0.75,1,0],[1,1,0],[0,0.25,0],[0,0.5,0],[0,0.75,0],[1,0.25,0],[1,0.5,0],[1,0.75,0]];outlineConnect=0;fontColor=#232F3E;fillColor=#E7157B;strokeColor=#ffffff;dashed=0;verticalLabelPosition=bottom;verticalAlign=top;align=center;html=1;fontSize=12;fontStyle=0;aspect=fixed;shape=mxgraph.aws4.resourceIcon;resIcon=mxgraph.aws4.eventbridge;" vertex="1" parent="6lzBRq8hJMNXazaC6yWQ-2">
          <mxGeometry x="480" y="40" width="78" height="78" as="geometry" />
        </mxCell>
        <mxCell id="6lzBRq8hJMNXazaC6yWQ-30" value="publish stac items and collections" style="edgeStyle=orthogonalEdgeStyle;rounded=0;orthogonalLoop=1;jettySize=auto;html=1;" edge="1" parent="6lzBRq8hJMNXazaC6yWQ-2" source="6lzBRq8hJMNXazaC6yWQ-19" target="6lzBRq8hJMNXazaC6yWQ-4">
          <mxGeometry relative="1" as="geometry" />
        </mxCell>
        <mxCell id="6lzBRq8hJMNXazaC6yWQ-19" value="AWS Lambda&lt;br&gt;Events Listener" style="sketch=0;points=[[0,0,0],[0.25,0,0],[0.5,0,0],[0.75,0,0],[1,0,0],[0,1,0],[0.25,1,0],[0.5,1,0],[0.75,1,0],[1,1,0],[0,0.25,0],[0,0.5,0],[0,0.75,0],[1,0.25,0],[1,0.5,0],[1,0.75,0]];outlineConnect=0;fontColor=#232F3E;fillColor=#ED7100;strokeColor=#ffffff;dashed=0;verticalLabelPosition=bottom;verticalAlign=top;align=center;html=1;fontSize=12;fontStyle=0;aspect=fixed;shape=mxgraph.aws4.resourceIcon;resIcon=mxgraph.aws4.lambda;" vertex="1" parent="6lzBRq8hJMNXazaC6yWQ-2">
          <mxGeometry x="480" y="240" width="78" height="78" as="geometry" />
        </mxCell>
        <mxCell id="6lzBRq8hJMNXazaC6yWQ-21" value="publish engine events" style="edgeStyle=orthogonalEdgeStyle;rounded=0;orthogonalLoop=1;jettySize=auto;html=1;" edge="1" parent="6lzBRq8hJMNXazaC6yWQ-2" source="6lzBRq8hJMNXazaC6yWQ-22">
          <mxGeometry relative="1" as="geometry">
            <mxPoint x="558" y="40" as="targetPoint" />
            <Array as="points">
              <mxPoint x="650" y="40" />
              <mxPoint x="650" y="40" />
            </Array>
          </mxGeometry>
        </mxCell>
        <mxCell id="6lzBRq8hJMNXazaC6yWQ-22" value="Engine&lt;br&gt;Module" style="shape=module;align=left;spacingLeft=20;align=center;verticalAlign=top;whiteSpace=wrap;html=1;" vertex="1" parent="6lzBRq8hJMNXazaC6yWQ-2">
          <mxGeometry x="730" y="20" width="100" height="50" as="geometry" />
        </mxCell>
        <mxCell id="6lzBRq8hJMNXazaC6yWQ-24" value="Users" style="sketch=0;outlineConnect=0;gradientColor=none;fontColor=#545B64;strokeColor=none;fillColor=#879196;dashed=0;verticalLabelPosition=bottom;verticalAlign=top;align=center;html=1;fontSize=12;fontStyle=0;aspect=fixed;shape=mxgraph.aws4.illustration_users;pointerEvents=1" vertex="1" parent="1">
          <mxGeometry x="-10" y="465" width="100" height="100" as="geometry" />
        </mxCell>
        <mxCell id="6lzBRq8hJMNXazaC6yWQ-23" value="API Access" style="edgeStyle=orthogonalEdgeStyle;rounded=0;orthogonalLoop=1;jettySize=auto;html=1;" edge="1" parent="1" source="6lzBRq8hJMNXazaC6yWQ-24" target="6lzBRq8hJMNXazaC6yWQ-10">
          <mxGeometry relative="1" as="geometry" />
        </mxCell>
      </root>
    </mxGraphModel>
  </diagram>
</mxfile>
